<svg xmlns="http://www.w3.org/2000/svg" xmlns:xlink="http://www.w3.org/1999/xlink" width="1500" height="2500" viewBox="0 0 1500 2500"><defs><style>.cls-1,.cls-10,.cls-24,.cls-64,.cls-65{fill:none;}.cls-2{isolation:isolate;}.cls-3{fill:#9bc1b9;}.cls-4{fill:#aeadad;}.cls-5{fill:#1e4e27;}.cls-6{fill:#2a3579;}.cls-21,.cls-7{fill:#fff;}.cls-8{fill:#f5bf98;}.cls-63,.cls-9{fill:#efefef;}.cls-10{stroke:#888989;stroke-width:5px;}.cls-10,.cls-21,.cls-24,.cls-64,.cls-65{stroke-miterlimit:10;}.cls-11{fill:#b0b0af;}.cls-12{fill:#bababa;}.cls-13{fill:#e0e0e0;}.cls-14{fill:#232956;}.cls-15{fill:#9090c6;}.cls-16{fill:#ddd;}.cls-17{fill:#202121;}.cls-18{fill:#eae49b;}.cls-19{fill:#afaaa7;}.cls-20{fill:#3b3a3a;}.cls-21,.cls-64,.cls-65{stroke:#fff;}.cls-21{stroke-width:7px;}.cls-22{fill:#ecb288;}.cls-23{fill:#404240;fill-rule:evenodd;}.cls-24{stroke:#6e2381;stroke-width:20px;}.cls-25,.cls-46,.cls-47{opacity:0.56;}.cls-25{fill:url(#Unbenannter_Verlauf_3);}.cls-26{fill:#e6be9d;}.cls-27{fill:#eaeaea;}.cls-28{fill:#141822;}.cls-29{fill:#39393c;}.cls-30{fill:#39393d;}.cls-31{fill:#212834;}.cls-32{fill:#ba9b85;}.cls-33{fill:#3ba9e0;}.cls-34{clip-path:url(#clip-path);}.cls-35{fill:#e7c2a8;}.cls-36{fill:#825345;}.cls-37{fill:#cfad98;}.cls-38{clip-path:url(#clip-path-2);}.cls-39{fill:#50372b;}.cls-40{clip-path:url(#clip-path-3);}.cls-41{fill:#010101;}.cls-42{fill:#cf9e8c;}.cls-43{clip-path:url(#clip-path-5);}.cls-44{fill:#5b2211;}.cls-45{fill:#1b1b1b;}.cls-46{fill:url(#Unbenannter_Verlauf_3-2);}.cls-47{fill:url(#Unbenannter_Verlauf_3-3);}.cls-48{fill:#f2c4a5;}.cls-49{fill:#e56e8b;}.cls-50{fill:#8f9293;}.cls-51{fill:#e5b28f;}.cls-52{fill:#a16450;}.cls-53{fill:#5f423b;}.cls-54{fill:#479cbf;}.cls-55{fill:#e7b088;}.cls-56{fill:#edb995;}.cls-57{fill:#cdbbb2;}.cls-58{fill:#313131;}.cls-59{fill:#7e8287;}.cls-60{fill:#1d3d51;}.cls-61{fill:#52372e;}.cls-62{fill:#a38b81;}.cls-63{mix-blend-mode:multiply;}.cls-64,.cls-65{stroke-width:16px;}.cls-65{stroke-dasharray:15 15;}</style><linearGradient id="Unbenannter_Verlauf_3" x1="-6781.71" y1="2127.16" x2="-6525.68" y2="2127.16" gradientTransform="matrix(1, 0, 0, -1, 8025.68, 4254.32)" gradientUnits="userSpaceOnUse"><stop offset="0" stop-color="#bbbcbb"/><stop offset="0.01" stop-color="#b4b5b4"/><stop offset="0.09" stop-color="#8a8b8a"/><stop offset="0.17" stop-color="#656565"/><stop offset="0.26" stop-color="#454645"/><stop offset="0.36" stop-color="#2c2c2c"/><stop offset="0.46" stop-color="#181818"/><stop offset="0.58" stop-color="#0a0b0a"/><stop offset="0.73" stop-color="#020202"/><stop offset="1"/></linearGradient><clipPath id="clip-path"><rect class="cls-1" x="1297.79" y="764.41" width="202.4" height="218.15"/></clipPath><clipPath id="clip-path-2"><rect class="cls-1" x="1329.13" y="850.12" width="31.21" height="104.65"/></clipPath><clipPath id="clip-path-3"><path class="cls-1" d="M1351.66,894.42c2.9,2.28-8.47,4.93-10.9,4.87s-3.41-8.29-2-8.75a1.82,1.82,0,0,1,.59-.07c2.42,0,9.66,1.89,12.29,3.95"/></clipPath><clipPath id="clip-path-5"><rect class="cls-1" x="1315.84" y="773.82" width="168.6" height="152.58" transform="translate(-170.79 386.13) rotate(-14.81)"/></clipPath><linearGradient id="Unbenannter_Verlauf_3-2" x1="3753.27" y1="1338.48" x2="4017.61" y2="1338.48" gradientTransform="translate(-2968.44)" xlink:href="#Unbenannter_Verlauf_3"/><linearGradient id="Unbenannter_Verlauf_3-3" x1="3575.07" y1="1360.95" x2="3921.7" y2="1360.95" gradientTransform="translate(-2968.44)" xlink:href="#Unbenannter_Verlauf_3"/></defs><g class="cls-2"><g id="Ebene_1" data-name="Ebene 1"><rect class="cls-3" x="608.94" y="2.63" width="890" height="1316"/><rect class="cls-4" x="0.93" y="-6.26" width="611" height="2500.47"/><path class="cls-5" d="M1284.15,1444.32c-.05,0-.15.1-.07.1S1284.23,1444.32,1284.15,1444.32Z"/><g id="SVG_24x24pt"><path id="backgroundBlue" class="cls-6" d="M366.61,723.87v-186a13.33,13.33,0,0,1,13.28-13.29h186a13.33,13.33,0,0,1,13.29,13.29v186a13.33,13.33,0,0,1-13.29,13.29h-186A13.33,13.33,0,0,1,366.61,723.87Z"/><g id="content"><path class="cls-7" d="M449.44,611V710.6H429.56V645.41H406.12V631a50.1,50.1,0,0,0,11.89-1.5,24.67,24.67,0,0,0,8.41-4.22q5.52-4.23,7.42-14.24Z"/><path class="cls-7" d="M547.53,692.89V710.6H475.8a45.93,45.93,0,0,1,2.62-15.46,37.59,37.59,0,0,1,7.39-12.67,68.36,68.36,0,0,1,8.62-8q4.94-3.87,19.65-14.23,7.15-5,10-9.27a17.47,17.47,0,0,0,2.86-9.94,14.78,14.78,0,0,0-3.84-10.6A13.32,13.32,0,0,0,513,626.41q-15.39,0-15.87,22.13H478v-2.18q0-18.12,10.15-28.06,9.87-9.67,25.55-9.67,13.89,0,23.22,7.9,10.15,8.58,10.15,23.09a31.74,31.74,0,0,1-8.1,21.8,38.77,38.77,0,0,1-5,4.8q-2.31,1.8-12.2,8.69-9.4,6.54-13.45,10a53,53,0,0,0-7.53,8Z"/><g id="Gleis"><path class="cls-7" d="M411.75,560.34v10.73H409l-.43-2.27a7.26,7.26,0,0,1-6,2.75,8.65,8.65,0,0,1-7.21-3.37,11.11,11.11,0,0,1-2.19-7,10.72,10.72,0,0,1,2.86-7.7,9.12,9.12,0,0,1,6.94-2.83,8.48,8.48,0,0,1,6.38,2.53,7.41,7.41,0,0,1,2.12,4.5h-4.22a4,4,0,0,0-1.46-2.51,4.49,4.49,0,0,0-2.88-.9,4.7,4.7,0,0,0-4.08,2,8.15,8.15,0,0,0-1.27,4.82,8.29,8.29,0,0,0,1.18,4.72,4.88,4.88,0,0,0,4.31,2.14,4.73,4.73,0,0,0,3.37-1.24,4.46,4.46,0,0,0,1.38-3.26h-4.42v-3.19h8.37Z"/><path class="cls-7" d="M418.89,551.15v19.92h-3.95V551.15Z"/><path class="cls-7" d="M430.53,568a3,3,0,0,1-1.8.49,3,3,0,0,1-3.06-2,6,6,0,0,1-.33-1.82H435.7a13.29,13.29,0,0,0-.61-4.37,6.84,6.84,0,0,0-2-2.92,7.12,7.12,0,0,0-9.95.82,8.1,8.1,0,0,0-1.87,5.44,9.44,9.44,0,0,0,.56,3.22,6.82,6.82,0,0,0,1.5,2.46,7,7,0,0,0,5.32,2.1,6.57,6.57,0,0,0,5.65-2.68,6.8,6.8,0,0,0,1.13-2.35h-3.8A3.45,3.45,0,0,1,430.53,568Zm-4.15-8.35a3.09,3.09,0,0,1,3.71-.48,2.72,2.72,0,0,1,1.08,1.1,4.62,4.62,0,0,1,.5,1.79h-6.31A3.93,3.93,0,0,1,426.38,559.66Z"/><path class="cls-7" d="M438.15,556.22v14.85h4V556.22Zm0-5.07v3.55h4v-3.55Z"/><path class="cls-7" d="M457.38,560.54h-3.7a2.39,2.39,0,0,0-.43-1.16,2.77,2.77,0,0,0-2.28-.79,2.87,2.87,0,0,0-1.62.39,1.2,1.2,0,0,0-.56,1.07,1.16,1.16,0,0,0,.63,1.08,13.59,13.59,0,0,0,2.9.8,11.72,11.72,0,0,1,4.15,1.47,3.48,3.48,0,0,1,1.49,3.1,4.29,4.29,0,0,1-1.85,3.7,8.36,8.36,0,0,1-4.85,1.28q-3.74,0-5.48-1.84a5.32,5.32,0,0,1-1.3-3.42h3.79a2.92,2.92,0,0,0,.52,1.52,3.06,3.06,0,0,0,2.52.93,3.39,3.39,0,0,0,1.95-.49,1.59,1.59,0,0,0,.72-1.35,1.24,1.24,0,0,0-.62-1.13,10.82,10.82,0,0,0-2.62-.84c-1.3-.3-2.21-.53-2.74-.7a8.43,8.43,0,0,1-1.45-.61,3.33,3.33,0,0,1-1.3-1.33,4,4,0,0,1-.46-1.91,3.9,3.9,0,0,1,1.92-3.52,8,8,0,0,1,4.36-1c2.46,0,4.23.63,5.3,1.87A4.9,4.9,0,0,1,457.38,560.54Z"/></g></g></g><polygon class="cls-8" points="180.96 1658.67 -0.06 2017.32 -0.06 1658.52 179.98 1658.67 180.96 1658.67"/><polygon class="cls-9" points="443.45 2499.34 -0.55 2499.63 -0.55 2314.63 321.45 2321.34 443.45 2499.34"/><polygon class="cls-9" points="174.45 2324.34 1.95 2314.63 1.95 2153.63 135.2 2153.63 174.45 2324.34"/><polyline class="cls-10" points="134.2 2153.64 170.54 2314.49 221.95 2499.84"/><rect class="cls-11" x="610.95" y="1519.63" width="889" height="53"/><rect class="cls-11" x="610.95" y="1459.63" width="889" height="53"/><rect class="cls-12" x="610.95" y="1399.63" width="889" height="53"/><rect class="cls-13" x="610.94" y="1572.63" width="890" height="927"/><rect class="cls-9" x="610.95" y="1315.63" width="890" height="87"/><path class="cls-14" d="M1501,101.63v203H978.78A7.82,7.82,0,0,1,971,296.8V109.46a7.83,7.83,0,0,1,7.83-7.83Z"/><path class="cls-15" d="M1501,128.63v149H1017.6c-7,0-12.65-5.18-12.65-11.56V140.19c0-6.38,5.66-11.56,12.65-11.56Z"/><path class="cls-16" d="M1501,152.63v23H1145.86c-7.84-7-7-15.15-2.54-19.63a11.46,11.46,0,0,1,8.13-3.37Z"/><rect class="cls-16" x="1145.17" y="199.63" width="355.78" height="6"/><rect class="cls-16" x="1145.17" y="219.63" width="355.78" height="6"/><g id="SVG_24x24pt-2" data-name="SVG_24x24pt"><path id="backgroundBlue-2" data-name="backgroundBlue" class="cls-6" d="M1037.85,244.92v-86.1H1124v86.1Z"/><g id="content-2" data-name="content"><path class="cls-7" d="M1071.4,193.83v40.33h-8.06v-26.4h-9.49v-5.85a20.13,20.13,0,0,0,4.82-.61,9.65,9.65,0,0,0,3.4-1.71c1.49-1.14,2.5-3.06,3-5.76Z"/><path class="cls-7" d="M1111.12,227v7.17h-29a18.51,18.51,0,0,1,1.07-6.26,15,15,0,0,1,3-5.13,27.48,27.48,0,0,1,3.49-3.23q2-1.57,8-5.76a15.34,15.34,0,0,0,4.05-3.76,7.08,7.08,0,0,0,1.16-4,6,6,0,0,0-1.56-4.29,5.36,5.36,0,0,0-4.09-1.65q-6.24,0-6.43,9H1083v-.89q0-7.33,4.11-11.36a15.52,15.52,0,0,1,19.75-.72,11.63,11.63,0,0,1,4.11,9.35,12.82,12.82,0,0,1-3.28,8.83,16.26,16.26,0,0,1-2,1.95q-.95.74-4.94,3.52-3.81,2.64-5.45,4a21.37,21.37,0,0,0-3,3.23Z"/><g id="Gleis-2" data-name="Gleis"><path class="cls-7" d="M1056.13,173.3v4.35H1055l-.17-.92a3,3,0,0,1-2.42,1.12,3.53,3.53,0,0,1-2.92-1.37,4.48,4.48,0,0,1-.88-2.82,4.31,4.31,0,0,1,1.16-3.12,3.66,3.66,0,0,1,2.8-1.15,3.43,3.43,0,0,1,2.59,1,3,3,0,0,1,.86,1.82h-1.71a1.64,1.64,0,0,0-.59-1,1.85,1.85,0,0,0-1.17-.36,1.89,1.89,0,0,0-1.65.83,3.24,3.24,0,0,0-.52,1.95,3.35,3.35,0,0,0,.48,1.91,2,2,0,0,0,1.75.86,1.87,1.87,0,0,0,1.36-.5,1.75,1.75,0,0,0,.56-1.32h-1.79V173.3Z"/><path class="cls-7" d="M1059,169.58v8.07h-1.6v-8.07Z"/><path class="cls-7" d="M1063.74,176.41a1.23,1.23,0,0,1-.72.2,1.2,1.2,0,0,1-1.24-.79,2.17,2.17,0,0,1-.14-.74h4.2a5.27,5.27,0,0,0-.25-1.77,2.74,2.74,0,0,0-.79-1.18,2.88,2.88,0,0,0-4,.33,3.27,3.27,0,0,0-.76,2.2,3.84,3.84,0,0,0,.23,1.31,2.73,2.73,0,0,0,2.76,1.85,2.65,2.65,0,0,0,2.29-1.09,2.88,2.88,0,0,0,.46-.95h-1.54A1.45,1.45,0,0,1,1063.74,176.41Zm-1.68-3.38a1.2,1.2,0,0,1,.89-.36,1.22,1.22,0,0,1,.62.16,1,1,0,0,1,.43.45,1.8,1.8,0,0,1,.21.72h-2.56A1.55,1.55,0,0,1,1062.06,173Z"/><path class="cls-7" d="M1066.83,171.63v6h1.6v-6Zm0-2V171h1.6v-1.44Z"/><path class="cls-7" d="M1074.61,173.39h-1.5a.89.89,0,0,0-.17-.47,1.12,1.12,0,0,0-.92-.32,1.22,1.22,0,0,0-.66.15.52.52,0,0,0-.23.44.46.46,0,0,0,.26.43,5.07,5.07,0,0,0,1.17.33,4.89,4.89,0,0,1,1.68.59,1.42,1.42,0,0,1,.61,1.26,1.74,1.74,0,0,1-.75,1.5,3.43,3.43,0,0,1-2,.52,2.89,2.89,0,0,1-2.21-.75,2.1,2.1,0,0,1-.53-1.38h1.53a1.18,1.18,0,0,0,.21.61,1.26,1.26,0,0,0,1,.38,1.4,1.4,0,0,0,.79-.2.65.65,0,0,0,.29-.55.51.51,0,0,0-.25-.46,4.62,4.62,0,0,0-1.06-.34c-.52-.12-.89-.21-1.11-.28a4,4,0,0,1-.59-.24,1.38,1.38,0,0,1-.52-.55,1.52,1.52,0,0,1-.19-.77,1.57,1.57,0,0,1,.78-1.42,3.2,3.2,0,0,1,1.77-.41,2.67,2.67,0,0,1,2.14.76A1.91,1.91,0,0,1,1074.61,173.39Z"/></g></g></g><rect class="cls-17" x="610.95" y="-0.37" width="890" height="102"/><rect class="cls-18" x="779.95" y="581.63" width="406" height="733"/><rect class="cls-19" x="779.95" y="581.63" width="162" height="733"/><rect class="cls-19" x="1023.95" y="581.63" width="162" height="733"/><rect class="cls-20" x="1215.45" y="907.13" width="56" height="114"/><rect class="cls-21" x="1237.1" y="983.22" width="2.57" height="18.09" transform="translate(-338.92 1166.3) rotate(-45)"/><rect class="cls-21" x="1248.13" y="983.28" width="2.57" height="18.09" transform="translate(1431.21 2577.48) rotate(-135)"/><rect class="cls-21" x="1248.13" y="926.28" width="2.57" height="18.09" transform="translate(2794.27 713.23) rotate(135)"/><rect class="cls-21" x="1237.1" y="926.22" width="2.57" height="18.09" transform="translate(1024.05 -601.74) rotate(45)"/><path class="cls-8" d="M669.33,1194.28l-15.86,64.85-.92,3.73-.33,1.36-2.54,1.89h0c-2,1.47-5,3.68-8.58,6.31l-.07,0c-6,4.37-13.77,9.91-21.41,15.09h0c-2.94,2-5.85,3.94-8.65,5.73-.68.44-1.34.87-2,1.28-2.33,1.49-4.56,2.85-6.61,4.05-18.23,10.64-22.79,12.16-30.38,16.72a92.25,92.25,0,0,0-22.79,19.75c-6.08,7.59-39.51,48.62-60.78,62.29s-65.33,72.93-89.64,82-86.61,50.14-101.8,65.33-45.58,33.43-56.22,39.51-48.62,48.62-48.62,48.62L180,1658.67l0,.06H-.06v-310c37.42-52.57,66-94.13,70.61-104.82,15.19-34.94,27.35-194.48,53.18-243.1S160.19,847.37,169.31,814s18.23-33.43,33.43-63.82,7.59-100.28,10.63-118.51,33.43-16.71,47.1-9.11C272,628.91,290,645,298.1,671.76v0a97,97,0,0,1,3.39,16.05c3,24.37-1.38,46-3.28,71.32h0c0,.05,0,.09,0,.14a232.47,232.47,0,0,0,.05,38.79s0,.08,0,.12c.06.68.12,1.36.19,2a205.28,205.28,0,0,1-.14,38.65s0,.07,0,.1a321.26,321.26,0,0,1-13.53,66.09c-3,9-13.34,26.78-13.66,27.34l3-1.05,1.25-.44,3.1-1.09,1.85-.65,2-.71,15.3-5.37.74-.26h0l21.4-7.51h0l.32,251.2h0v6.74a2,2,0,0,0,0,.35,0,0,0,0,0,0,0c0,.47.05.93.09,1.4,0,.23.05.46.08.69s0,.26.05.39,0,.18,0,.27c.05.33.11.66.18,1l.18.8.06.25.09.33c0,.11.05.21.09.32s.12.43.2.65.12.38.19.57.17.46.26.69c0,0,0,.08,0,.11q.22.57.48,1.11l.1.2c.12.25.24.5.37.73l.12.23h0c.21.39.44.78.67,1.16s.42.64.64,1l.31.42c.17.23.34.46.52.68l.08.1.43.51c.14.17.29.33.44.49l.07.08c.23.24.46.48.7.7l.11.11.13.11c.29.28.59.54.89.79l.51.41.56.42.12.08c.23.17.47.33.7.48l.23.14c.35.23.7.43,1.06.62.14.08.28.16.43.23l.86.41h0c.27.13.54.24.81.35s.55.21.83.3l.42.14.33.1c.19.06.38.12.57.16l.06,0,.22,0,.31.07.31.07c.59.12,1.2.22,1.81.29h0l1,.08,1,0,269,.24h2l58.38,0Z"/><path class="cls-8" d="M798.34,839.78c-22.8,9.11-60.78,33.42-60.78,33.42l-.7,9.33L733,934l-14.85,60.7-.28-218.11c7.17-2.47,13.5-4.63,18.85-6.45,10.25-3.48,16.92-5.7,19.07-6.31,21.27-6.08,66.86-4.56,68.37,27.35S821.13,830.66,798.34,839.78Z"/><path class="cls-22" d="M271.11,932.46s4.55,38,7.59,57.74,18.24,89.64,18.24,89.64l.73-156.7Z"/><path class="cls-22" d="M325.8,1272.8s7.6,15.2,4.56,21.27-22.79,53.18-19.75,51.66,28.87-53.18,31.91-45.58-19.75,83.57-16.72,79,24.31-86.61,36.47-88.13,30.39,0,33.43,19.76,10.63,79,10.63,71.41-19.75-79,0-85.09,36.47,22.79,38,30.39-4.56-35,4.55-39.5,34.95,15.19,34.95,15.19,30.39,63.81,28.87,71.41-10.64-42.54-15.19-57.74-12.16-22.79-3-25.83,9.11-3,18.23-3,15.19,3,18.23,6.07,3-1.52,4.56-4.55,12.15-3,21.27-4.56,30.39-1.52,33.43,4.56,1.52,16.71,3,13.67,13.67-13.67,24.31-15.19,21.27-13.68,21.27-13.68L657,1259.13H325.8Z"/><path class="cls-23" d="M737.28,1237.28v-.17h0v0l0-24.84v-.14l0-16.95v-.1l0-32.44h0v0l0-19.32v0l0-11.26v-1.17l0-32.68h0l-.06-52.27v0l0-19.54h0v-4.69L737,962.18s0,0,0-.06l0-16.22v0h0l-.08-63.21v-.13l-.14-112.41-.56-460.64a22.77,22.77,0,0,0-.21-3.11,24,24,0,0,0-2-7,21.74,21.74,0,0,0-19.6-13l-103.4-.09h-2L319.45,286c-12.05,0-21.8,10.35-21.79,23.14l.44,362.63v0l.11,87.37v.15l.05,38.79v.12l.05,40.7v.1l.1,83.86.2,167.21v0l.19,152.57c0,12.77,9.78,23.12,21.81,23.13h5.19l283.14.26h2l37.71,0h1l65.82.06a21.46,21.46,0,0,0,18.44-10.78,23.65,23.65,0,0,0,2-4.29,24.4,24.4,0,0,0,1.35-8.07Zm-38.7-43-29.25,0h0l-58.38,0h-2L340,1194l-1,0c-.34,0-.66,0-1-.08h0c-.37,0-.75-.09-1.12-.15l-.69-.14-.31-.07-.31-.07-.22,0-.06,0c-.19,0-.38-.1-.57-.16l-.33-.1-.42-.14c-.28-.09-.56-.19-.83-.3s-.54-.22-.81-.35h0l-.86-.41c-.15-.07-.29-.15-.43-.23-.36-.19-.71-.39-1.06-.62l-.23-.14-.25-.16-.21-.14-.24-.18-.12-.08-.56-.42-.51-.41c-.3-.25-.6-.51-.89-.79l-.13-.11-.11-.11c-.24-.22-.47-.46-.7-.7l-.07-.08c-.15-.16-.3-.32-.44-.49l-.43-.51-.08-.1c-.18-.22-.36-.45-.52-.68s-.14-.18-.21-.27l-.1-.15c-.22-.31-.43-.63-.64-1s-.46-.77-.67-1.16h0l-.12-.23c-.13-.23-.25-.48-.37-.73l-.1-.2q-.26-.54-.48-1.11s0-.07,0-.11c-.09-.23-.18-.46-.26-.69s-.13-.38-.19-.57-.14-.43-.2-.65-.06-.21-.09-.32l-.09-.33-.06-.25-.06-.22,0-.13-.09-.45c-.07-.32-.13-.65-.18-1,0-.09,0-.18,0-.27s0-.26-.05-.39a5.4,5.4,0,0,1-.08-.69,1.23,1.23,0,0,1,0-.2l-.06-.79V1174c0-.11,0-.22,0-.33a0,0,0,0,1,0,0,2,2,0,0,1,0-.35c0-.11,0-.22,0-.34v-6.47l-.32-251.14-.71-557.08c0-11.62,8.85-21,19.79-21l60.4.06h0l209.63.19h2l22.45,0,64.13.06c10.93,0,19.8,9.41,19.81,21l.53,418,.28,218.11.23,178.62C718.38,1184.91,709.52,1194.32,698.58,1194.31Z"/><path class="cls-23" d="M609.76,362.9,423,362.73c-13,0-23.63-11.25-23.65-25.1v-10.3l234.08.21V337.8C633.41,351.67,622.83,362.91,609.76,362.9Z"/><path class="cls-8" d="M737.56,1142.13s-9.12,24.31-3,41,1.52,35.54,1.52,41c0,10.64,1.52,13.68,1.52,13.68A316,316,0,0,0,771,1219.62c19.76-12.15,41-28.86,39.51-50.14s1.52-28.86-16.71-31.9S737.56,1142.13,737.56,1142.13Z"/><path class="cls-8" d="M737.56,1044.89s-14.19,25.34-13.93,37.74,3.29,44.31,17,50.39,38,9.11,48.62,0,12.15-6.08,12.15-25.83,7.6-27.35-4.56-39.51-16.71-12.15-24.31-19.75S751.23,1037.3,737.56,1044.89Z"/><path class="cls-8" d="M737.56,927.9v16.71s-12.16,22.8-6.08,50.14,4.56,39.51,21.27,42.55,47.1-10.64,53.18-18.24,19.75-33.42,10.64-45.58-24.31-24.31-36.47-30.38L761.87,934A60.56,60.56,0,0,0,737.56,927.9Z"/><path class="cls-22" d="M789.33,1202.26c-9.55,3.21-20,5.14-30,3.81a16,16,0,0,1-5.84-1.68,11.31,11.31,0,0,1-3.56-3.22c-2-2.8-2.85-6.29-3.35-9.65-.58-3.9-.72-7.84-1-11.77a14,14,0,0,0-1.86-6.76,45.38,45.38,0,0,0-3.68-4.52,13,13,0,0,1-2.68-5.26,51.37,51.37,0,0,1-1.24-6.86,46.74,46.74,0,0,1,.57-14.26s.05-.07.1-.1l-.73.14s-9.12,24.31-3,41,1.52,35.54,1.52,41c0,10.64,1.52,13.68,1.52,13.68a316.63,316.63,0,0,0,33.43-18.24c9-5.54,18.34-12,25.67-19.49C793.22,1200.88,791.28,1201.6,789.33,1202.26Z"/><path class="cls-22" d="M789.19,1121.29a88.8,88.8,0,0,1-17.42,1.88,70.27,70.27,0,0,1-15.46-2.3c-3.83-.92-7.95-2-11.24-4.31a12.76,12.76,0,0,1-4.83-6.84,37.8,37.8,0,0,1-1.22-5.36,26.2,26.2,0,0,0-.72-3.61,16,16,0,0,0-1.44-3.11,23.55,23.55,0,0,1-2.91-5.72c-.71-2.67-.48-5.66-.38-8.39.21-5.23.45-10.43.41-15.66a111.37,111.37,0,0,1,.45-14,27.73,27.73,0,0,1,2.52-9.41c-.3.16-.61.29-.91.46,0,0-14.19,25.34-13.93,37.74s3.29,44.31,17,50.39,38,9.11,48.62,0c7.78-6.68,10.68-6.84,11.68-14.2A102.15,102.15,0,0,1,789.19,1121.29Z"/><path class="cls-22" d="M797,1021.1a72.11,72.11,0,0,1-9.08,2.68,41.7,41.7,0,0,1-15.43-.29,46.45,46.45,0,0,1-7.56-2.31c-2.79-1.1-5.39-2.65-8.41-3s-5.89-.06-8.75-.78a6.75,6.75,0,0,1-3.05-1.57,11.43,11.43,0,0,1-1.85-2.25,25,25,0,0,1-2.69-6.21,54.55,54.55,0,0,1-1.48-5.89c-1.14-6.31-1-12.8-.93-19.17,0-3.23.07-6.47,0-9.7s-.36-6.34-.65-9.51A170.4,170.4,0,0,1,736,944.73c-.87,1.68-11.86,23.74-6,50,6.08,27.35,4.56,39.51,21.27,42.55s46.86-10.53,53.1-18.14A52.77,52.77,0,0,0,797,1021.1Z"/><path class="cls-8" d="M265.79,957.53s28.87,129.15,39.5,151.94,24.31,97.24,21.27,139.78-3,88.13-44.06,92.68-101.8-212.71-85.08-232.46S265.79,957.53,265.79,957.53Z"/><path class="cls-22" d="M178.42,1402c4.56,22.79-10.63,63.81,13.68,110.91,17.75,34.38,33.87,64.73,37.14,70.92-.47-.85-1.2-2.19-2.2-4.06-10.63-19.76-92.68-107.88-103.32-107.88s16.72,66.85,24.31,83.57,25.83,74.45,16.72,50.14S53.83,1441.45,29.52,1462.72c-8,7-18.73,12.82-29.58,17.51v-23.78c31.61-31.46,68.48-75.83,72.12-107.68,6.08-53.18,60.78-167.13,68.38-176.25s-38,60.78,21.27,97.24c42.75,26.31,75.22,39.17,90,44.3,5.7,2,8.77,2.8,8.77,2.8s-1.78,1.28-4.83,3.55C237.49,1333.93,174.51,1382.43,178.42,1402Z"/><rect class="cls-24" x="340.93" y="475.49" width="264.7" height="310"/><rect class="cls-25" x="1243.98" y="2105.9" width="256.02" height="42.53" transform="translate(2743.98 4254.32) rotate(-180)"/><path class="cls-26" d="M1273.86,1420.69s-4.7,14.65-11.24,30.29c-1.81,4.34-8.41,10.71-12.65,14.5-7.18,6.44-26.56,10.32-23.11,15.49,3.57,5.35,24.42-.4,23.23,5.16-.75,3.5-1.68,6.14-3.89,12.81-3.24,9.78-11.38,45.44-8.07,44.65,5.36-1.27,16.07-42.27,18.18-41.7s-13.77,44.18-10.48,51.9,15.73-22.72,17.85-31.2c1.64-6.54,5.09-15.81,6.29-15.68s-13.57,43.3-7.17,44.86,18.27-41.49,19.84-41.29-9.88,31.32-5.06,34.09c3.35,1.93,7-10.65,17.21-31.78,4.48-9.3,10.88-24.3,12-32.11,1.08-7.3-1.48-8.79,0-19.81a48.87,48.87,0,0,1,5.8-17.87s0-18.38-13.74-25.44-25.06,3.13-25.06,3.13Z"/><path class="cls-27" d="M1317.92,1442.33l-1.75,6.89a5.48,5.48,0,0,1-7.23,3.78l-40.58-15.17a5.48,5.48,0,0,1-2.89-7.78l2.72-4.94a5.48,5.48,0,0,1,6.54-2.55l39.61,13.23a5.48,5.48,0,0,1,3.58,6.54Z"/><path class="cls-28" d="M1385.94,1249.53s5.42,6.27-4,38.48-3.3,29.13-19.54,58.49-24.84,51.16-32,69.44-2.78,28.1-14.82,25.93c-4.59-.82-45-16.14-49.34-17.9-7.75-3.11,16.1-40.68,28.17-77.4s18.21-56.23,28-77.84-1.55-27.13,22.5-34.78,34.74-10.73,41,15.58Z"/><path class="cls-29" d="M1457.33,1351.06c-33.73-66.69-142-58.38-153.67,9,0,0-.87,20.16-3.06,28.78s-3.14,41.43-4.5,78-2.74,97.16,2.16,134.38,17.42,98,20,109.7,4.73,51.78,5.41,56.26c7.7,50.67,122.36,70.62,120.73-40.31-.3-20.29,2.26-21.28,6.52-61.32s6.52-61.32,12-101.24,13.84-70.66,15.92-102.08-8.95-70.56-11.37-83.48-10.14-27.65-10.14-27.65Z"/><path class="cls-26" d="M1364.37,1444.82s-1.8,15.28-5.2,31.88c-.94,4.61-6.19,12.13-9.63,16.67-5.81,7.7-24.08,15.23-19.69,19.65s23.88-5.1,23.78.59c-.06,3.58-.47,6.34-1.35,13.32-1.29,10.22-2.42,46.78.67,45.37,5-2.28,7.64-44.58,9.81-44.42s-5,46-.29,52.94,11.06-25.32,11.52-34c.34-6.74,1.94-16.5,3.14-16.6s-5,45.11,1.6,45.41,10-44.23,11.53-44.34-3.67,32.63,1.59,34.43c3.66,1.25,4.85-11.8,10.77-34.5,2.61-10,6-25.94,5.64-33.82-.35-7.38-3.15-8.34-3.78-19.46a49,49,0,0,1,2.26-18.64s-3.5-18-18.39-22.32-24,7.89-24,7.89Z"/><path class="cls-27" d="M1411.77,1457.58l-.39,7.09a5.48,5.48,0,0,1-6.37,5.1l-42.75-7.08a5.48,5.48,0,0,1-4.32-7.07l1.72-5.38a5.49,5.49,0,0,1,5.92-3.76l41.42,5.36a5.49,5.49,0,0,1,4.77,5.74Z"/><path class="cls-30" d="M1441.43,1255.29s6.52,5.11,3.5,38.52,2.36,29.22-7.93,61.16-14.53,55-18.08,74.31,2.68,28.11-9.55,28.3c-4.67.08-47.23-7.2-51.87-8.08-8.2-1.56,8-43,12.76-81.37s7-58.68,12.5-81.77-6.73-26.33,15.4-38.46,32-17.21,43.27,7.39Z"/><path class="cls-30" d="M1447.16,1025.93s18.36,7.73,20.32,67.56-9.25,91.45-9.76,124.44,3.42,24.4-5,47.53,2.35,25.67-26.5,31.85-38.27-9.94-41.48-32,.51-33-3.66-65.55-18-80.71-13.15-117.63,21.12-44.37,35.33-56.26,27.16-16,43.94.06Z"/><path class="cls-31" d="M1457.33,1351.06c-33.73-66.69-142-58.38-153.67,9,0,0-.87,20.16-3.06,28.78s-3.14,41.43-4.5,78-2.74,97.16,2.16,134.38,17.42,98,20,109.7,4.73,51.78,5.41,56.26c7.7,50.67,122.36,70.62,120.73-40.31-.3-20.29,2.26-21.28,6.52-61.32s6.52-61.32,12-101.24,13.84-70.66,15.92-102.08-8.95-70.56-11.37-83.48-10.14-27.65-10.14-27.65Z"/><path class="cls-32" d="M1474.59,999.12c-3.36-10.25-15.73-10.07-17.62-32.72s-1.89-31.46.63-45.94-8.18-32.72-29.58-35.86-47.19,6.29-51,33.35,4.09,31.64,1,40.45,3.48,18.17,3.26,23.21c-.28,6.29,4.6,7.44.19,18.77s.63,25.17,12,34,43.42,19.51,62.92,2.51,21.61-27.49,18.25-37.75Z"/><path class="cls-33" d="M1467.67,990.31s-12-12.58-42.16-10.07-40.27,21.4-57.89,33.35-33.89,34-47.1,66.68-11.8,58-13.06,71.82-6.33,113-3.82,139-1.67,68,3.36,92.29-6.71,55.38,18.46,63.77,96.48-5,114.94-29.37,16.78-29.36,16.78-68.8,2.52-91.45,25.17-167,24.33-104.87,18.46-135.07-33.14-56.64-33.14-56.64Z"/><path class="cls-7" d="M1473.12,994.93s-10.07-31-14.26-33.56-47.82,4.19-65.44,13.42-31.89,28.53-31.89,28.53l-.83,15.94s30.2-16.78,45.3-20.14,67.12-4.19,67.12-4.19Z"/><path class="cls-31" d="M1500.94,1399.45c3,29.14,4,55.31-1,69.15a23.47,23.47,0,0,1-2.51,5.17c-3.3,1.16-10.45,2.68-20.14,4.37-17.87,3.14-44.34,6.87-71.06,10.11-20.21,2.45-40.55,4.61-57.41,6-21.68,1.81-37.59,2.34-40,.6a20,20,0,0,1-4.55-4.62c-3.06-4.24-5.92-11-8.18-22.28-.52-2.54-1-5.31-1.45-8.33-.32-2.2-.63-4.53-.91-7q-.32-2.66-.59-5.54h0c-.39-4.09-.74-8.52-1-13.33q-.16-2.67-.3-5.49-.3-6.15-.47-13.06c0-1.54-.08-3.1-.11-4.7.09-2.49.2-5.12.32-7.87,0-1,.09-2,.14-3,.71-15.41,1.86-34.29,3.26-54.71.59-8.54,1.22-17.35,1.89-26.29.07-1,.15-2,.22-3,2-26,4.19-52.93,6.4-77.4,3.33-36.82,6.62-68,8.87-82,.34-2.13.77-4.4,1.27-6.8a.36.36,0,0,0,0-.1c8.12-38.41,36-107.95,58.06-131.09,2.94-3.09,5.66-5.75,8.24-8.06l.55-.49.15-.12c.46-.41.92-.81,1.37-1.19,16.74-14.2,27.53-13.39,51.71-19.52,9.11-2.31,15.84-4.24,20.81-5.82,2.48-.79,4.52-1.49,6.19-2.1a45.78,45.78,0,0,0,6.52-2.82,4.71,4.71,0,0,0,1.17-.83l.15.2c1.75,2.35,18.65,25.32,30.42,52.22a167.11,167.11,0,0,1,6.69,17.77c3.08,9.9,4.95,19.85,4.69,29.08-.63,22.68-6,66.7-11.38,108.57-1.56,12.11-3.11,24-4.55,35.22-2.85,22.05-5.25,41.19-6.33,53.05-.86,9.41.37,24.45,2.44,42.22.12,1,.24,2,.35,3C1493.81,1343.23,1498.21,1372.61,1500.94,1399.45Z"/><path class="cls-28" d="M1369.48,1010.63l23-2.18s-39,61.67-53.46,105.19-32.64,113.9-32.64,113.9,2.9-90.68,21-134.21a659.49,659.49,0,0,1,40.21-79.74Z"/><path class="cls-28" d="M1369.48,1010.63l43-3.62s43.53-17.42,49-23.22,8.71-7.26,8.71-7.26S1444.38,982,1419,989.59s-49.51,21-49.51,21Z"/><g class="cls-34"><path class="cls-35" d="M1322.3,846.71c.18,9.52,1,10.19,2.33,27.07s7.13,19.58,6.06,27.79-9.39,20.38-6.55,27.29,11.49,2.61,12.93,5.22,3.58,5,2.14,7.39c-1.8,2.93-.6,7.16,2.06,6.33,11.13-3.48,16.46-3.11,4,1.39,0,0-4.92,1.16-3.38,5.65a44.93,44.93,0,0,0,4.4,9.86c1.26,1.81,2.09,4.58,3.63,9.45,1.63,5.13,5.07,9.31,15.31,8.23s17.57-8.84,36.57-21.14,41.17-34.56,50.54-46.76,29.6-29.32,18.4-78.34-57.74-56.42-91.82-53.25c-33.59,3.47-47.57,24.47-52.35,40.24,0,0-4.4,14.06-4.22,23.58"/><path class="cls-36" d="M1329.46,850.26c.32-.15.54-.23.54-.23Z"/><path class="cls-37" d="M1338.7,923.05a7.7,7.7,0,0,0-4.83,0l-4.93,1.67a13.06,13.06,0,0,0,6,.56,6.06,6.06,0,0,0,3.76-2.25"/></g><g class="cls-38"><path class="cls-36" d="M1329.65,850.35a5.61,5.61,0,0,1,.54-.23Z"/><path class="cls-39" d="M1336.83,879.85c-1.36.15-4,.81-5-.43-1.36-1.68.38-1.41,1.76-1.67,2.43-.46,4.78-.23,7.19-.57,6.08-.85,15.8-2.75,19.53,1.12-1.26.84-5.29-.44-6.84-.6-5.77-.56-11,1.54-16.67,2.15"/><path class="cls-7" d="M1338.78,890.54c-1.43.46-.44,8.68,2,8.75s13.79-2.59,10.89-4.87-11.46-4.34-12.88-3.88"/></g><g class="cls-40"><path class="cls-41" d="M1334.43,895.47c.26,3,2.6,5.32,5.22,5.1s4.53-2.88,4.26-5.92-2.6-5.33-5.22-5.1-4.53,2.87-4.26,5.92"/></g><g class="cls-38"><path class="cls-42" d="M1356,943.64a16.6,16.6,0,0,1-3.4,1c-3.09.82-1.87,1-6.3,1.1-3.93.15-5.35-1.26-6.47-1.21-1.66.07-1.95.88-1.17,2.2s1,1.49,2.64,1.42a37.06,37.06,0,0,0,6.56-.89c1.82-.5,3.82-1,5.44-1.44a5.33,5.33,0,0,0,2.7-2.2"/><path class="cls-42" d="M1355.91,943.78s-3.43,2.13-6,3.58c-2.74,1.53-4.18,1.43-5.7,2.17s-1.77.57-2.84,2.09.38,3.92,2,2.9,4.52-1.93,6.17-3.4c1.86-1.64,3.61-2.82,4.8-4.49a11.23,11.23,0,0,0,1.54-2.85"/><path class="cls-37" d="M1338.89,923.14a7.74,7.74,0,0,0-4.84,0l-4.92,1.67a13,13,0,0,0,6,.55,6.07,6.07,0,0,0,3.76-2.24"/></g><g class="cls-43"><path class="cls-44" d="M1465.28,910.49c-4.09,4.63,8.22-2.77,8.72-8.82s-1.25-11.44-2.22-15.44l0-.24c-.08-.47-.2-.94-.3-1.41,0-.3.08-.28.38.26,1.11,2,3.11,3.51,3.69,6.85a32.61,32.61,0,0,1,.28,8.33c5-6.58,10.06-18.71,10.12-23.9a30.92,30.92,0,0,0-2.26-12.52c-1.18-2.52-5.68-11.06-5.36-10.5.64,1.15,3.64,4.36,4.77,6s4.66,8.7,4.93,9.22a104.38,104.38,0,0,0-2.06-23c-.41-1.79-.83-3.53-1.26-5.24q-2.21-3.15-4.62-6.13c-2.7-3.3-4.06-5.94-7.25-8.77l-7-7.23,7.69,4.21a79.49,79.49,0,0,1,8.23,7.19c-1.59-5.13-7.65-15.07-11-20.22s-10.71-7.41-15.93-11.58c-1.31-1-2.66-2-4.07-2.93-.83-.54-1.67-1-2.52-1.48,0,0,4.81.27,6.86,1.11s6.39,4.57,8.63,6.56c-11.53-20.65-30.48-22.84-39.94-24.57-5.82-1.05-18.47-3.18-22.69.38.3-1.66-4.11,12,5,18.46,7.3,5.14,9.56,13.89,11.38,20.51a149.67,149.67,0,0,0,11.63,27.11c6.39,11.53,14.81,19.41,19.48,27.31ZM1427.17,803.7a3.65,3.65,0,0,1,.18-.34v0l-.19.32m4.16,15.82c.81-.7,1.67-1.35,2.55-2l.1.21a31.32,31.32,0,0,0-2.65,1.77m10.9,21.56c.67-.33,1.36-.63,2.06-.92l.06.13c-.71.24-1.42.5-2.12.79"/><path class="cls-44" d="M1425.81,781.86c-21.67-8.24-30.64-9.26-58-2.12s-50.44,17.75-61.11,28.54,11.55,24.4,17,29.27c6.75,6.05,12.31,1.23,19.82.11s18.44-7.47,30.79-7,4.63,15.25,11.46,24.92c7.24,10.23,9.69,27.62,10.79,32.45s8.7,7.74,6.59,1.76,20.77,6.6,23.69,14.5c2.35,6.37,5.09,11.4,8.67,11.8a31.87,31.87,0,0,0,19.75-3.23c8.56-4.34,8.32-6.17,11.27-12.52,3.33-7.16,12.14-19.48,7.68-46.81s-4-23.52-9.47-37.21-28.76-30.57-38.94-34.45"/></g><path class="cls-31" d="M1510.32,1076.57c-.63,22.68-6,66.7-11.38,108.57v43.94c-1.35-2.72-2.84-5.6-4.55-8.72-2.1-3.83-4.51-8-7.37-12.63-2.52-4.07-5.35-8.35-8.4-12.82-4.93-7.22-10.41-14.9-16-22.88-14.55-20.94-29.55-43.93-36.27-66-9.63-31.59-1.49-45.79,6.08-60.25,1-1.84,1.91-3.69,2.82-5.58,3.08-6.42,6.47-11.73,10.72-15.38,6.07-5.23,13.91-7.09,25.14-4,1.34.37,2.74.8,4.18,1.31,0,0,9.11-.26,23.22,16.19l.39.46c2.12,2.51,4.36,5.39,6.69,8.71C1508.71,1057.39,1510.58,1067.34,1510.32,1076.57Z"/><path class="cls-45" d="M1345.77,2054.48a33,33,0,1,1,66,0c0,9-3.17,23.93-9.06,29.9s-14.76,3.1-23.94,3.1a33,33,0,0,1-33-33Z"/><path class="cls-45" d="M1339.51,2053.07s-10.43,19.95-35.19,32.09-38,14.41-50,14.19-21.45,2.76-20.94,9.7,10.43,14.66,30.52,17.54,74.37-6.2,84.42-4.76,21.33,3.53,32.64,4.37l33.2.6a5,5,0,0,0,5-5.65l-.87-6.23s6.62-18.14-1.21-37.16c-21.66-20.53-77.6-24.69-77.6-24.69Z"/><path class="cls-45" d="M1402.5,1710.54s26.41-1.51,38.15,41.16c2.64,12.56-3.64,13.88-1,25.18s7.69,13.77,9.14,33.89,4.38,61.63-4.1,95.7-11.92,74.78-13,93.67,2.9,14.51.73,23.57c-1.86,7.74-3.49,16-2.18,21s4.59,11.63-.36,19.23.08,5.6-16.33.72-22.74-2.91-39.19-12.81-40.55-1.1-42.78-4.24c-8.55-12,4.9-24.28,4.71-43.16s4.28-61.77.1-103.26.57-75.45.35-98.1-10.3-23.81-.45-46.56,17.17-41.77,37.24-48.26,29,2.23,29,2.23Z"/><path class="cls-45" d="M1500.94,2011.94v77.27c-16.66,11.66-38.29,27.15-50.28,31.76-15,5.78-26,5.77-31.75,2.61a9.4,9.4,0,0,1-3.45-3c-2.56-3.89-.33-8.43,4.6-12.69a49.45,49.45,0,0,1,9-6c10.54-5.64,21-14.09,36.71-36.76a85.83,85.83,0,0,0,14.86-40.48h0a43.58,43.58,0,0,0,.22-4.69S1489.12,2016.06,1500.94,2011.94Z"/><path class="cls-31" d="M1500.94,1834.36v178c-8.47,3.39-15.68,9.1-20.35,12.24h0c-2.42,1.63-4.16,2.57-5,2.15-13.31-6.3-7.56-23.59-16.93-40-5-8.73-12.14-24-21.35-41.62-8.08-15.43-17.75-32.6-28.91-48.58-23.88-34.19-42.92-62.45-54.16-82.12-7.65-13.39-14.43-15.85-18.77-23.84-.38-.7-.75-1.45-1.09-2.25-1.48-3.46-2.59-7.94-3.24-14.34-2.49-24.66,1.26-48.55,15.62-64s26.38-12.17,26.38-12.17,22.32-14.2,53.38,17.33c8.43,9.68,3.59,13.89,11.4,22.48a47.42,47.42,0,0,0,5.82,5.39c5.3,4.21,10.5,7.3,18.68,19.74,1.6,2.43,3.44,5.24,5.45,8.36,4,6.22,8.68,13.7,13.41,22A280.19,280.19,0,0,1,1500.94,1834.36Z"/><path class="cls-45" d="M1462.68,1580.79l38.26-5.29v217.9l-8.68,1.2a21,21,0,0,1-23.67-17.92l-.76-5.51L1451.89,1656l-7.13-51.52a21,21,0,0,1,15.88-23.29A19.84,19.84,0,0,1,1462.68,1580.79Z"/><path class="cls-44" d="M1334.9,933.14s.34,9.14,1.58,9.93a7.6,7.6,0,0,0,5.93,1.22c2.47-.65,3.8.15,7-.76s4.74-1.68,7.17-1.53,3.36,0,5.64.16,7.92.15,7.92.15a30.35,30.35,0,0,1-8-3.23c-4.14-2.41-4-2.56-8.41-3.17s1.37.91-6.55-1.52S1334.9,933.14,1334.9,933.14Z"/><path class="cls-44" d="M1344.73,956.51s-2.42-.52-2.55,1.54-.41,3.86,1.28,5.91,3.35.78,3.48,5.66,1.54,11.19,1.67,14.27,3.92,5.27,3.92,5.27-1.35,4.08,7.14.89,14.91-7.32,17.48-10.92,4.63-1.67,7.85-4.62,7.58-2.58,10.67-6,20.56-14.27,23.26-17,19.55-12.72,17.88-17.61S1431,920,1425,917.3s-18.77-12.22-20.57-16.46a113.12,113.12,0,0,0-5.42-10.37s-5,3.3-3.58,7.8a94.12,94.12,0,0,1,3.58,14.4c1.56,8.23.75,11.44,0,17.74s4.39,8.49-3.2,11.31-9.25,7.2-12.85,7.85-15-8.78-17.18-8.7-4.93-1.85-3,2,6.43,11.7,4.12,15-3.86,3.12-7.46,2.91S1344.73,956.51,1344.73,956.51Z"/><rect class="cls-46" x="784.83" y="1322.93" width="264.34" height="31.1"/><rect class="cls-47" x="606.63" y="1354.03" width="346.63" height="13.84"/><g id="_3" data-name="3"><path class="cls-48" d="M1034.65,1174.32l-35.07-2,1.54,10,2.43,15.83,3.44,22.32v11.11c0,8.57-2.45,16.5-2.12,25.25.69,17.53,8,33.57,11.35,50.63a55.09,55.09,0,0,1,1.42,9.53c.08,1.39-.7,3.71-.7,6.49,0,4.39-7.18,17.12-7.18,17.12l13.89,3.47L1032,1342l1.39-16.67-2.77-13.88v-9.73c.25-13.4,1.23-29.4,1.38-42.81.13-9.67-1.7-16.81-.63-26.45,1-9,2.34-17.45,1.83-26.7a61.38,61.38,0,0,1,.11-7.41c.33-4.93,1.07-10,1.49-15v0c.15-2,.26-3.88.27-5.78,0-1.11,0-2.2,0-3.28Z"/><path class="cls-49" d="M1033.61,1326.76l-3.71,13.43-3.3,1.33a16.56,16.56,0,0,1-12.45.1,5.7,5.7,0,0,1-2.07-1.21c-1.34-1.57,4.11-12.58,4.4-13.19-2.29,2.89-8.24,13.54-8.44,20.09a6.49,6.49,0,0,0,.74,3.6c4.33,4.49,16.5,2.93,16.5,2.93s2.32-.24,6-3a7.42,7.42,0,0,0,2.74-6.35,12.66,12.66,0,0,0-.42-2.9l1.62-3.48A87.24,87.24,0,0,0,1033.61,1326.76Z"/><path class="cls-50" d="M1016.25,1351.41a11.26,11.26,0,0,1-8.21-4.1,6.49,6.49,0,0,0,.74,3.6c4.33,4.49,16.5,2.93,16.5,2.93s2.32-.24,6-3a7.42,7.42,0,0,0,2.74-6.35C1029.51,1351.76,1023,1351.73,1016.25,1351.41Z"/><path class="cls-48" d="M1034.65,1174.32c-.05,1.07-.08,2.14-.08,3.23,0,1.92.08,3.86.21,5.84v0c.29,4.89.84,9.91,1.09,14.77a71.3,71.3,0,0,1,0,7.59c-.51,9.25.82,17.65,1.83,26.7,1.07,9.64-.76,16.78-.64,26.45.16,13.41,1.14,29.41,1.39,42.81v9.73l-2.77,13.88,1.38,16.67,8.34,2.08,13.89-3.47s-7.18-12.73-7.18-17.12c0-2.78-.78-5.1-.7-6.49a55.09,55.09,0,0,1,1.42-9.53c3.35-17.06,10.66-33.1,11.35-50.63.33-8.75-2.12-16.68-2.12-25.25v-11.11l4.34-28.21.76-4.9,2.31-15-34.85,1.85Z"/><path class="cls-49" d="M1057,1340.41a5.7,5.7,0,0,1-2.07,1.21,16.56,16.56,0,0,1-12.45-.1l-3.3-1.33-3.71-13.43a87.24,87.24,0,0,0-1.62,11.34l1.62,3.48a12.66,12.66,0,0,0-.42,2.9,7.42,7.42,0,0,0,2.74,6.35c3.69,2.77,6,3,6,3s12.17,1.56,16.5-2.93a6.49,6.49,0,0,0,.74-3.6c-.2-6.55-6.15-17.2-8.44-20.09C1052.89,1327.83,1058.34,1338.84,1057,1340.41Z"/><path class="cls-50" d="M1052.83,1351.41c-6.79.32-13.26.35-17.78-6.93a7.42,7.42,0,0,0,2.74,6.35c3.69,2.77,6,3,6,3s12.17,1.56,16.5-2.93a6.49,6.49,0,0,0,.74-3.6A11.26,11.26,0,0,1,1052.83,1351.41Z"/><path class="cls-51" d="M1047.84,1046.15c-4.62-2.78-1.5-16.56-2-18l-12.5-.36c-5.39.17-10.4-1-12.44,2.82a9.08,9.08,0,0,0-.88,3.28c-.58,6,1.38,11.87-4.23,14.76a16.54,16.54,0,0,1-5.43,1.54c-5.42.74-13.46,3.93-10.64,11.22.79,2,5.82,7.93,8.17,8.41,1.66.33,17,1.62,25.45,2.33,8.48-.71,23.81-2,25.47-2.33,2.25-.45,10.27-13.88,12.93-11.28a22.92,22.92,0,0,0-2.26-2C1063.61,1052,1054.26,1050,1047.84,1046.15Z"/><path class="cls-48" d="M1086.05,1145.33l-8.13-3.54-1.68,12.22-.84,8.22c-1,3.52-3.64,9.57-3,13.27s1.48,4.43,1.34,8.74c0,.7,2.35-.39,3.21-2.36.55-1.28-1.2-4.14.92-4,4.52.34,2.37,8-.52,9.21-.57.24-1.24.41-1.55,1a1.53,1.53,0,0,0,.64,1.93c2.06,1.35,4.17.56,5.74-1l5-4.79c.76-.73.86-5.76.82-6.87-.14-4.57-3.12-8.59-3.33-13.23a41.63,41.63,0,0,1,.34-4.86Q1085.52,1152.32,1086.05,1145.33Z"/><path class="cls-48" d="M1083.81,1120.62c-2.63-8.55-2.2-18.08-2.65-26.92a167.73,167.73,0,0,0-2.72-21.19q-2.16-1.74-4.13-3.66c-4.29,4.35-12.58,9.12-14.69,10.44l8.78,41.79,1.35,12.94,6.36,28.34,9,3.5a183.69,183.69,0,0,0,2.15-23c.12-3.83.11-7.52,0-11C1086.29,1129.29,1085.26,1125.35,1083.81,1120.62Z"/><path class="cls-51" d="M986.2,1114.49a20.39,20.39,0,0,0,2.16,6.85c7.67,13.3,19.82-4.69,19.84-13.48,0-6,.94-13.13-.16-18.94s-4.83-10.75-5.25-16.59c-.11-1.49-.79-2.87-.86-4.31-.16-2.9,1.24-5.6-.81-8.19s-3.77-1.8-6-.08c-4.55,3.6-8.07,8.16-9.47,13.85s-.17,12.3-.57,18.17a99.05,99.05,0,0,0,.94,21.9C986.11,1114,986.15,1114.22,986.2,1114.49Z"/><path class="cls-48" d="M999.81,1110.48a28.51,28.51,0,0,0-1.86-8.77v0c-1.83-5.17-4.6-10.26-6.31-15.13-.54-1.55-1.2-3.11-1.73-4.69-.15-.45-.29-.91-.41-1.37-.08-.29-.15-.58-.22-.88s-.13-.6-.18-.9a12.36,12.36,0,0,1-.17-1.93v-.3c0-.23,0-.46,0-.69,0-.43.08-.86.13-1.29s.1-.71.17-1.07.12-.72.19-1.08l.33-1.63c.06-.32.13-.63.19-1,.14-.71.28-1.43.4-2.15.06-.36.1-.72.15-1.08s.07-.72.09-1.08c0-.14,0-.29,0-.45s0-.58,0-.91v0c0-.44-.06-.9-.12-1.32,0-.1,0-.2,0-.3a1.36,1.36,0,0,0-.06-.29c0-.18-.1-.35-.16-.51a.44.44,0,0,0-.06-.16.64.64,0,0,0-.08-.14.85.85,0,0,0-.17-.25.57.57,0,0,0-.77-.12,2,2,0,0,0-.39.31,5.59,5.59,0,0,0-.95,1.3,2.91,2.91,0,0,0,.15-1.18c0-.06,0-.12,0-.18a2.43,2.43,0,0,0-.08-.47c0-.07,0-.14,0-.2a.07.07,0,0,0,0,0,2.1,2.1,0,0,0-.06-.24,5.41,5.41,0,0,0-.34-.78,4.48,4.48,0,0,0-.67-1c-.34-.37-2.56-1.88-2.62-1a2,2,0,0,0-.88-1.81l-.19-.1a1.05,1.05,0,0,0-.65.11h-.13c-.31.13-.53.3-.71.36l.1-.35c.42-1.88-1.87-.79-2.88,0a2.81,2.81,0,0,0-.39.4,1.62,1.62,0,0,0,.06-.4c.15-1.19-.74-.57-1.33,0a4.4,4.4,0,0,0-.45.49c-.12.15-.23.31-.35.47s-.18.26-.26.4l-.06.06v0a11.27,11.27,0,0,0-.56,1,10.56,10.56,0,0,0-.84,2.51c-.33,1.14-.66,2.27-1,3.41-1.33,4.56.57,9.64,2,13.92.53,1.55,1,3,1.31,4.32a44.63,44.63,0,0,1,1.24,9c.41,8.48,3.16,16.77,6.69,24.44a52.83,52.83,0,0,0,6.18,10.32l.3.36a9.91,9.91,0,0,0,3.6,2.86,2.79,2.79,0,0,0,.47.14,3,3,0,0,0,1.48,0,3.16,3.16,0,0,0,1.18-.63,5.31,5.31,0,0,0,1.53-2.37,13.17,13.17,0,0,0,.63-2.93h0C1000.78,1119.13,999.89,1113.25,999.81,1110.48Zm-12.57-46.7c-.07.16-.14.32-.19.47s-.12.31-.16.45a5.45,5.45,0,0,0-.21.78.22.22,0,0,0,0,.08h0a1.11,1.11,0,0,0,0,.17s0,.33-.06.79c0,.17,0,.37-.05.58s0,.29,0,.44a1.7,1.7,0,0,1,0,.22c0,.17,0,.34-.05.52s-.06.66-.09,1c0,.08,0,.17,0,.25a1.94,1.94,0,0,1,0,.24l0,.33c0,.16,0,.3,0,.4s0,.06,0,.09a1.09,1.09,0,0,0,0,.12h0l0,0c-.15-.11-.63-.43-.95-.69l-.16-.14-.1-.12h0a1.79,1.79,0,0,1-.13-.32,2.22,2.22,0,0,1-.09-.37,1.35,1.35,0,0,1,0-.29h0c0-.06,0-.12,0-.19a9.59,9.59,0,0,1,0-1.21c0-.12,0-.23,0-.34s0-.22.06-.32a2.81,2.81,0,0,1,.08-.31c0-.1.06-.19.1-.29s.07-.17.11-.25h0a.82.82,0,0,1,.12-.2,1.63,1.63,0,0,1,.11-.17.83.83,0,0,1,.12-.16.93.93,0,0,1,.13-.15l.19-.19.2-.18.4-.32a5.27,5.27,0,0,0,1-.89C987.31,1063.59,987.27,1063.69,987.24,1063.78Z"/><path class="cls-48" d="M1042,985.52a21,21,0,0,0-18.72,0c-6.4,3.2-13.55,8.31-13.3,14.38.77,19.39,4,27.06,6.91,33.12.47,1,11.08,9.2,11.08,9.2a56.87,56.87,0,0,0,9.59,0s11.53-7.52,11.74-8.59c2.51-7.53,5.23-14.36,6-33.75C1055.52,993.83,1048.38,988.72,1042,985.52Z"/><path class="cls-7" d="M1025.33,1029.42c3.2,6.42,13.47,4.71,16.25.22A30.82,30.82,0,0,1,1025.33,1029.42Z"/><path class="cls-51" d="M1028.34,1025.37c3.64,1.92,9.63.42,9.63.42a20.85,20.85,0,0,0-6.2-1.49C1029.2,1024.3,1028.34,1025.37,1028.34,1025.37Z"/><path class="cls-7" d="M1023.06,1012l-5.56,2.42c3.28,4.56,10.55,1.71,10.55,1.71l-2-3.13Z"/><path class="cls-52" d="M1023.2,1012.16a2.28,2.28,0,1,0,2.28,2.28A2.28,2.28,0,0,0,1023.2,1012.16Z"/><path class="cls-53" d="M1021.49,1007.32c-2.77,0-6,2-7,2.66a16.81,16.81,0,0,1,4.14-1.24c3.06-.68,7.9,1,9.77,1.69a20.1,20.1,0,0,1-.24-2A30.15,30.15,0,0,0,1021.49,1007.32Z"/><path class="cls-7" d="M1038.49,1013.19l-2,3.14s7.27,2.85,10.54-1.71l-5.55-2.43Z"/><path class="cls-52" d="M1041.34,1012.34a2.28,2.28,0,1,0,2.28,2.28A2.28,2.28,0,0,0,1041.34,1012.34Z"/><path class="cls-53" d="M1036.82,1008.45a16.86,16.86,0,0,0-.34,2c2-.76,6.53-2.21,9.42-1.56a17.19,17.19,0,0,1,4.14,1.23c-1-.63-4.22-2.66-7-2.66A28.24,28.24,0,0,0,1036.82,1008.45Z"/><path class="cls-54" d="M987.38,1063.46a8.43,8.43,0,0,0-.73,2.26c0,.07-.43,5-.43,5a11.11,11.11,0,0,1-1.26-1,4.44,4.44,0,0,1-.23-2.4C985,1064.72,986.45,1064.72,987.38,1063.46Z"/><path class="cls-49" d="M1070.63,1158.87c2.66,28.34,4.39,55.56,5.38,81.55-19,3.89-39.54,4.22-55.59,3.49-7.45-.37-14.46-1-21.07-1.86q-3.79-.51-7.38-1.07c-.7-18.67-.83-38.65-.17-59.71.14-5.12.34-10.27.6-15.49.1-1.56.17-3.12.24-4.69.46-8.57,1.06-17,1.76-25.18.16-2.16.36-4.29.56-6.42.87-9.54,1.9-18.81,3-27.78.4-3.22.8-6.45,1.23-9.6l-2.06-6.32-.43-1.36-6.78-2.56a15.86,15.86,0,0,1-1-5.38c.1-3.69,1.46-7.31,1.69-11,.13-2.26-.33-7.15-2.82-2.83a3.52,3.52,0,0,0-.07-2.33l.73-1.29c1.76-2.36,7.55-6,10.4-6.61a78.82,78.82,0,0,0,13.86-4c-3.16,1.33,6.65,14,8.84,15.22,6.81,3.66,17.55,3.09,23.56-1.76,4.09-3.25,4.79-10,4.89-15.12,6,1.17,9.07,4.79,13,5.69,2.86.66,8.61,4.25,10.4,6.61l10.44,18.38-18.65,7-.23.43c-.83,1.46-1.63,3-2.46,4.46C1065.64,1111.51,1068.4,1134.74,1070.63,1158.87Z"/><path class="cls-48" d="M1052,1010.16l-2.7,12.18a40.23,40.23,0,0,0,3.82,2.36c.68.21,3.82-3.43,3.82-3.43s2.7-10.9.45-13.68S1052,1010.16,1052,1010.16Z"/><path class="cls-48" d="M1007.15,1007.79c-2.13,2.78.43,13.68.43,13.68s3,3.64,3.64,3.43a37.55,37.55,0,0,0,3.63-2.36l-2.56-12.18S1009.29,1005,1007.15,1007.79Z"/><path class="cls-54" d="M1020,984.46c-12.5,5.09-13,18.28-13,19.21,0,0,6-18.29,26.39-16a31,31,0,0,1,24.07,18.28C1058.84,997.65,1047.27,977.05,1020,984.46Z"/><path class="cls-53" d="M1057.57,994.06c-2.09,0-44.1-26.38-48.27,14.59,0,0-2.43,25-1.38,25s2.77,22.22,2.77,22.22,2.48,14.53,8.47,14.91c1.8.11,5.9.48,7.93.61,3.3.2,7.27-3.1,10.68-2.9,2.21.13,3.3-4.38,5.34-4.27,8,.43,17.12-5.54,16.48-5.8-1.74-.69,4.57-38,4.57-38S1059.65,994.06,1057.57,994.06Z"/><path class="cls-53" d="M1054.22,1014.37c.68,5.71,1.84,11.28.66,17a20.74,20.74,0,0,0,3,15.54c2.61,4.25,6.52,8.25,11.48,8.7,2.49.22,5.51-1,5.73-3.53-3.8-.68-6.67-4-7.9-7.68-4-11.77-.82-25.39-2.47-37.61-2.69-20-16.42-34-37.5-30-2.36.46-4.79,1.14-6.54,2.79-2.48,2.32-3,6-3.41,9.36,8.75,2.1,13.59,6.57,21.49,10.52,2,1,4.85,1.5,6.52,2.89,2.33,1.94,3.88,6.15,5.43,8.74l2.36-4.48C1052.55,1007.58,1054,1012.91,1054.22,1014.37Z"/><path class="cls-53" d="M1029.44,983.3c-2-4.63-10.37-3.35-13.62-1.85-12,5.55-13.74,20.36-13,32.06s1.31,27.5-6.42,37.12c-.81,1-1.92,2-3.2,1.88a9.1,9.1,0,0,0,9.85,1.51c3.38-1.58,7.66-5.22,8.8-8.88,1.47-4.71-1.45-10.38-2.07-15.24-.5-3.89-.81-7.81-1-11.74a24.33,24.33,0,0,1,1.62-10.55l2.81,5.72c-1-6.34,1.14-10.61,5.18-15.12,2-2.23,5.47-5.13,7.56-8.4C1027.57,987.34,1030.65,986.07,1029.44,983.3Z"/></g><polygon class="cls-55" points="975.21 1074.48 979.66 1076.06 993.75 1073.76 1001.97 1063.05 976.04 1056.74 975.21 1074.48"/><polygon class="cls-56" points="978.5 1040.67 974.28 1043.04 974.5 1046.76 975.2 1058.08 982.86 1066.07 1001.43 1063.57 998.73 1050.28 989.62 1034.45 989.52 1034.51 978.5 1040.67"/><g id="_11" data-name="11"><g id="_13" data-name="13"><path class="cls-57" d="M923.43,1342l-.33,1.67a12.28,12.28,0,0,0,4.52,12l1,.74a12,12,0,0,0,6.93,2.51l14.85.53a11.66,11.66,0,0,0,2.7-.25c1.94-1.6,3.77-3.44,5.12-4.56.78-.66,1.54-1.35,2.29-2-.09-1.54-.22-3.07-.39-4.6Z"/><path class="cls-58" d="M957,1339.4c-1.7-2.32-3.32-4.71-5-7-1.3-1.8-2.59-4.6-4.37-6a6.25,6.25,0,0,0-1.54-1c-1.72-.71-2,1.19-5.11,1.93-5.6,1.34-10.9-7.7-16.24-2-2.44,2.63-1,8-.92,11.18l-.82,10.06,6.71,4.46a15.63,15.63,0,0,0,7,2.53l10.36,1.12a15.55,15.55,0,0,0,9.91-2.25l3.39-2.1c-.19-2.18-.46-4.37-.84-6.54C958.65,1342.28,957.73,1340.88,957,1339.4Z"/><path class="cls-59" d="M952.53,1321.2a4.17,4.17,0,0,0-2.11-2.57l-.07,0a6.56,6.56,0,0,0-5.43,0,5.92,5.92,0,0,0-.89.49,7.93,7.93,0,0,0-3.16,4.51.88.88,0,0,0,0,.15,13.35,13.35,0,0,0-.36,2c-.05.51-.07,1-.09,1.52s0,1.07,0,1.6v1.32l.75-.36.77-.38,6-2.94,1.47-.71A6.92,6.92,0,0,0,952,1324a2.06,2.06,0,0,0,.23-.37A3.22,3.22,0,0,0,952.53,1321.2Zm-2,2a2.24,2.24,0,0,1-.49.48,8.31,8.31,0,0,1-1.54.88l-2.06,1h0l-4.32,2.11c0-.26,0-.52,0-.77a12.84,12.84,0,0,1,.39-2.71c.05-.17.1-.35.15-.51a6.28,6.28,0,0,1,2.39-3.26,5,5,0,0,1,2.66-.8,3.71,3.71,0,0,1,1.72.37,2.58,2.58,0,0,1,1.33,1.63A1.78,1.78,0,0,1,950.56,1323.15Z"/><path class="cls-59" d="M941.88,1329.53l-.21-.73c-.16-.54-.35-1.07-.56-1.59s-.41-.93-.65-1.38a18.46,18.46,0,0,0-1.34-2.2,20.42,20.42,0,0,0-5.11-5c-.21-.15-.43-.29-.65-.43-1.91-1.21-4.34-1.22-5.2.13a1.4,1.4,0,0,0-.15.3,3.06,3.06,0,0,0,.63,2.8,19.47,19.47,0,0,0,1.78,2.2h0a22.57,22.57,0,0,0,9.93,6l.17,0,.58.17,1,.28Zm-3.68-2.35a20.22,20.22,0,0,1-5.4-3.55,17.55,17.55,0,0,1-2.65-3c-.48-.7-.64-1.22-.44-1.52,0-.08.16-.27.64-.27a4.13,4.13,0,0,1,2,.65,18.64,18.64,0,0,1,4.67,4.16,17.32,17.32,0,0,1,2.27,3.73l.15.34C939,1327.54,938.6,1327.37,938.2,1327.18Z"/><path class="cls-57" d="M899.17,1341.06l-36.07,6.52q-.23,3-.4,5.92c1.51,1.2,3.09,2.32,4.57,3.55l2,1.69a10.15,10.15,0,0,0,2.64.24l16-.82a10.14,10.14,0,0,0,5.84-2.21l3.09-2.45a8.78,8.78,0,0,0,3.11-8.67Z"/><path class="cls-58" d="M897.87,1324.71c-5.33-5.74-10.65,3.29-16.25,1.93-3.1-.75-3.38-2.65-5.11-2a6.55,6.55,0,0,0-1.53,1c-1.79,1.45-3.09,4.24-4.39,6-2.14,3-4.12,6.07-6.41,8.93l-.27.34-.4.8q-.28,4.14-.59,8.27l2.86,1.78a15,15,0,0,0,9.49,2.19l10.75-1.14a15,15,0,0,0,6.69-2.4l6.85-4.54-.8-10.06C898.89,1332.74,900.3,1327.34,897.87,1324.71Z"/><path class="cls-59" d="M882.05,1329.2v-.91c0-.23,0-.45,0-.68h0l0-.88h0c0-.51-.06-1-.12-1.52a12.09,12.09,0,0,0-.26-1.56c0-.17-.08-.33-.13-.5a8,8,0,0,0-3.12-4.5l-.16-.11a6.67,6.67,0,0,0-6.32-.44,3.67,3.67,0,0,0-.8.55,4.16,4.16,0,0,0-1.34,2.09,3.19,3.19,0,0,0,.53,2.79l.1.12a7.11,7.11,0,0,0,2.58,1.73l1.56.73,6,2.8.19.09h0l.59.28.15.07h0l.59.28ZM876,1325l-2.16-1-.72-.35a4,4,0,0,1-1.32-1,1.79,1.79,0,0,1-.27-1.57,2.64,2.64,0,0,1,1.31-1.65,3.7,3.7,0,0,1,1.72-.4,5,5,0,0,1,2.67.76,6.5,6.5,0,0,1,2.6,3.73l0,.12a13.11,13.11,0,0,1,.38,2.51c0,.28,0,.57,0,.85Z"/><path class="cls-59" d="M894.07,1317.49c-.87-1.33-3.31-1.28-5.2,0a19.61,19.61,0,0,0-1.64,1.19,20.23,20.23,0,0,0-4.48,5c-.31.51-.61,1-.87,1.56s-.43.89-.61,1.35h0c-.17.43-.33.87-.46,1.32h0l-.09.29-.14.49v0l-.06.21-.19.67.55-.17h0l.42-.13.56-.17.18-.06a22,22,0,0,0,3.61-1.5h0a22.16,22.16,0,0,0,5.42-3.9l.33-.32h0a19.9,19.9,0,0,0,2.19-2.7,3.85,3.85,0,0,0,.76-2A1.94,1.94,0,0,0,894.07,1317.49Zm-2,2.32a18.68,18.68,0,0,1-3.47,3.82,20.31,20.31,0,0,1-4.93,3.07h0l-.75.32.11-.26a17,17,0,0,1,1.74-3.14,18.52,18.52,0,0,1,5.11-4.94l.1-.06a3.92,3.92,0,0,1,1.87-.61c.48,0,.6.18.65.25a.57.57,0,0,1,.08.36A2.6,2.6,0,0,1,892.12,1319.81Z"/><path class="cls-59" d="M880.31,1328l.62,1.47a10.34,10.34,0,0,1,8.41,1l1-1.28A12.25,12.25,0,0,0,880.31,1328Z"/><path class="cls-60" d="M971.61,1083.88c-9.16,133.47-11.22,87-4.58,139.44-6,75-4.26,59.11-8.25,80.28l-.25,16.56s1,10.7-3,17.09c-25.93,18.79-25-.52-31.44.3-2.52.32-1.37-6.19-1.37-6.19-7.9-85.43,11.81-85-11.61-244.23l-.3-1.93c-.1.64-.2,1.28-.32,1.93-1.66,10.5-3.1,20.6-4.26,30.36-9.51,78.47-3.74,138-1.88,172.81-4.21,43.24.64,18.23-6.32,47.45,0,0-29.43,13.61-30.21-7.11h0c-.25-.39-.47-.76-.67-1.11a19.16,19.16,0,0,1-3-7.48,17.19,17.19,0,0,1-.1-3.39c.15-3.42,1.09-7.6,2.08-14.39-1.51-7.48-2.28-10.4-2.85-14.19l0-.17c-.25-1.64-.45-3.47-.67-5.92l-.07-.92c-.55-6.34-1.14-16.69-2.48-37.44l-.17-2.72c-.13-1.71-.25-3.52-.38-5.37l-.61-9.51L859,1226c1.24-15.16,2-21,2-25.93a58.39,58.39,0,0,0-.24-6.69l-.08-.69c-1-10.62-4.23-31.08-10.62-107.87l-1.56-21c.57-4.81,1.14-9.61,1.58-14.42l1.94.1,42.59,2.16,15.94.79,5.07-14.08,58.08,10Z"/><path class="cls-51" d="M942.07,853.13l-9.6-3.69-2.27-17L911,835.17l-19.21-2.49-.11.83-1.86,16.24L884.15,852a19.4,19.4,0,0,1-3.53,1,5.66,5.66,0,0,0-1.71.68,28.79,28.79,0,0,0-2.56,1.58,4.74,4.74,0,0,0-1.47,1.27c-.92,1.38.5,3.44,1.25,4.62a45.7,45.7,0,0,0,24.54,19.22,47.8,47.8,0,0,0,31.63-.67c6-2.24,11.64-5.88,14.63-11.32S946.69,857.37,942.07,853.13Z"/><path class="cls-51" d="M879.86,797.29l-.24-.15a3,3,0,0,0-3.52.24l-.81.66a3.1,3.1,0,0,0-.95,3.42c1,2.87,1.84,5.77,2.87,8.63a56.64,56.64,0,0,0,2.34,5.88,8.47,8.47,0,0,0,1.1,2.26c.83.82,2.52.45,3.32,1.11l1.69,1.39c-1.75-7.4-1.22-14.05-3.07-21.54C882.4,798.4,880.54,797.71,879.86,797.29Z"/><path class="cls-61" d="M932.18,767.64c-3,0-7.54,3-10.43,4.06l-10.88-1.24c-6-.69-13-2.73-18.88-2.66-10.86.12-12.76,18.39-11,26.25l.3,1.31-.42-.32c2.09,9.92,2.91,18.58,4.77,28.27l3.67,11.53,16.2,9.45,5.68.31,5.68-.39,15-10.44,3-10.52c1.32-10,4.37-20.12,4.07-30.16C938.82,787.09,942.4,767.65,932.18,767.64Z"/><path class="cls-51" d="M940.43,796.07l-1.23.54-.18-.31c.29,8.09-2.77,16.21-4.11,24.31.08-.48,2-.74,2.31-.83,3.15-.73,2.86-2.38,3.61-4.62s1.59-4.69,2.38-7c.7-2.08,2.08-4.66,2.17-6.83a4.26,4.26,0,0,0-1.61-3.46C943.36,797.49,940.84,795.89,940.43,796.07Z"/><path class="cls-62" d="M987.64,910.16l-1.13-26.54-14.78-27.56c-1.17-1.92-22.84-4.77-26.15-5.95-1.28-.46-10.88-3.74-10.89-4.51a25.83,25.83,0,0,1-46,2c-6.07,3.63-13.44,4.67-20,7.53-7.4,3.25-15.13,4.93-22.72,7.72,0,0-3,18.47-3.77,20.74s-4.77,36.74-4.77,36.74l15.86-2.93,1.17,7.51-.92,21a392.18,392.18,0,0,1,1.49,39.78c-.32,23.77.56,35.13-2.69,53.48q-.15,3.4-.31,6.8l2.72,0h1.28l115.62,1.33c-2.67-95.9-4.05-63.33-10.64-111.81L963.67,916C973.56,910.41,978.65,912.58,987.64,910.16Z"/><path class="cls-62" d="M889.61,844.62l-44.13,11.71,7.66,82.88c-.18,14.84-.22,24.69-.32,32.6-.07,4.86-.16,9-.28,13.06-.52,15.43-1.82,44.2-6,96.48l34.06.25c21.71.38,39.45-37.56,40.18-59,1.89-11.56-4.27-25.45-3.43-39.22.37-6.3-10.66-11.67-10.6-18.38,0-2.1,0-4.25,0-6.39-.08-12.88-.82-25-2-36.13Z"/><path class="cls-62" d="M965.39,938.73l13,143.69-6.78.33-4.92.27c-11.1.6-32.52-7.21-40.06-14.36-12-11.33-12.53-39.14-12.56-41.74-3-18.94,5.43-41.3,6-66.33a383.16,383.16,0,0,1,3.06-40.6l15.15-73.84,40.45,10.56-13,79-.33,2Z"/><path class="cls-61" d="M885.49,767.27c-2,.59-4.41,3.36-6,4.77l-3.06,7.51a9.35,9.35,0,0,0-.46,5.58l3.12,13.74,3.25,5.71a81.38,81.38,0,0,0,4-9.62c1.4-4.41.72-8.73,1.76-13.14s5.23-9.21,8.54-12.22c-2.43-.64-6-2.24-8.84-2.49A6.11,6.11,0,0,0,885.49,767.27Z"/><path class="cls-61" d="M930,767.37a3.61,3.61,0,0,0-2.13,2.85c-.44,3.67,2.89,6.43,4.31,9.44a67.65,67.65,0,0,1,3.48,10.44c.83,2.86-.16,5.48.64,8.2.54,1.83,2.06,3.21,1.88,5.21,1.2-2.52,3.14-5.24,3.85-7.93l2.54-9.55-3.37-14.78C940.59,768.81,931.87,766.38,930,767.37Z"/><path class="cls-61" d="M882.19,768.34c1.62-4.87,3.71-5.42,8.53-7.46,11.09-4.71,19.54-11,32.23-7,6.57,2.06,15.87,6.12,18.1,13.37a6.06,6.06,0,0,1,.26,1.79c0,2.6-2.3,5-5,6.8a31.31,31.31,0,0,1-3.24,1.86,26.49,26.49,0,0,1-3.67,1.44,22.37,22.37,0,0,1-8,.41c-8.72-.65-18.59-3-27.28-1.49a21.68,21.68,0,0,0-13.85,7.83c-.25.29-.47.58-.7.9.39-.52.27-2.6.1-4.7,0-.41-.06-.82-.08-1.2s-.06-.77-.08-1.11a16,16,0,0,1,0-1.74,1.72,1.72,0,0,1,0-.34C879.94,774.37,881.15,771.49,882.19,768.34Z"/><path class="cls-63" d="M906.22,1117.49q1.74-14.62,4.26-30.35l-3.19,0Z"/></g><path class="cls-62" d="M988.14,870.19a17.74,17.74,0,0,0-5.89-9.83l-4.83-4.09-14.63,76.51,4,36.7,8.72,86.4,26.59-.41L1000,964.08Z"/><path class="cls-48" d="M817,1026.89l14.58-7.86,1.86,17.5,3.87,13.69,3.16,13.08-1.93,12.57a3.52,3.52,0,0,1-5.35,2.36l-1.5-.94.41-11.29-5.76-3.82-3.85,13.45,9.54,14.8a5.25,5.25,0,0,1-7.91-.23l-7.11-8.81-3.48-18,3.39-15.56Z"/><path class="cls-62" d="M835.69,869.67a17.83,17.83,0,0,1,5.9-9.83l4.82-4.08,9.78,81.37L846.46,973l-5.52,81.34-30.44.94,2.77-93.08Z"/></g><path class="cls-62" d="M886.93,846.26l1.8-4.94s24.21,6.06,32.5,3.37,14.12-5.16,14.12-5.16,7.62,9.19,4.71,10.31-3.59,18.61-24.44,16.37-29.81-14.8-29.81-14.8Z"/><path class="cls-49" d="M1014.06,1343.92s12.67.55,13.23.08a33.7,33.7,0,0,0,3.69-4.17c0-.32,2.76-10.31,2.76-10.31s-2-2.76-4.25-3.23-2.83-1.89-6.38-1.26-7.71.63-9.83,7.48-2,9.91-2,9.91Z"/><path class="cls-49" d="M1035.71,1329.05s.15-3.47,1.65-4.33,7.63-.24,8.89.23,1.1.24,2.36-.47,3.86,2.44,5.75,5.67,4.64,7.24,3.46,10.23,2.91,6.77-5.74,5.59-12.2-.4-13.38-3.47S1035.71,1329.05,1035.71,1329.05Z"/><line class="cls-64" x1="521.08" y1="872.56" x2="521.08" y2="949.77"/><polygon class="cls-7" points="475.27 909.67 483.47 917.32 521.07 876.86 558.67 917.32 566.87 909.67 521.07 860.42 475.27 909.67"/><polyline class="cls-65" points="521.08 1049.85 521.08 1050.72 521.08 1153.46"/><path class="cls-7" d="M497.4,1005.59V970.44H486.16l-26,34.07v10.93h25.4v13.33H497.4v-13.33h7.67v-9.85Zm-11.62.12H470.12L485.78,984Z"/><path class="cls-7" d="M556.28,970.49l-13,41.44-13.56-41.44h-17.9v57.64h11.94l-.43-42.58,14.78,42.58H548l14.55-43.8-.44,43.8H574V970.49Z"/></g></g></svg>